<?xml version="1.0" encoding="utf-8"?>
<!-- Svg Vector Icons : http://www.onlinewebfonts.com/icon -->
<!DOCTYPE svg PUBLIC "-//W3C//DTD SVG 1.1//EN" "http://www.w3.org/Graphics/SVG/1.1/DTD/svg11.dtd">
<svg version="1.1" xmlns="http://www.w3.org/2000/svg" xmlns:xlink="http://www.w3.org/1999/xlink" x="0px" y="0px" viewBox="0 0 1000 1000" enable-background="new 0 0 1000 1000" xml:space="preserve">
<metadata> Svg Vector Icons : http://www.onlinewebfonts.com/icon </metadata>
<g><path d="M847.8,389.4h-82.2V275.6C765.6,129.2,646.5,10,500,10c-146.5,0-265.6,119.2-265.6,265.6v113.8h-82.1c-27.9,0-50.6,22.5-50.6,50.6v499.5c0,27.9,22.7,50.5,50.6,50.5h695.5c27.9,0,50.5-22.6,50.5-50.5V440C898.4,412,875.8,389.4,847.8,389.4z M500,111.2c90.7,0,164.4,73.8,164.4,164.4v113.8H335.7V275.6h-0.1C335.6,185,409.4,111.2,500,111.2z M744.8,586.3L470.1,865L443,892.6c-9.7,9.8-25.3,9.8-35,0L380.2,864l-7.1-7.2c-0.2-0.3-0.5-0.5-0.7-0.8L255.2,735.5c-9.6-9.8-9.6-25.8,0-35.6l35-35.6c9.7-9.8,25.3-9.8,35,0l100.7,103.5l249.1-252.6c9.7-9.8,25.3-9.8,35,0l35,35.6C754.5,560.5,754.5,576.5,744.8,586.3z"/></g>
</svg>